<?xml version="1.0" standalone="no"?>
<!DOCTYPE svg PUBLIC "-//W3C//DTD SVG 20010904//EN"
 "http://www.w3.org/TR/2001/REC-SVG-20010904/DTD/svg10.dtd">
<svg version="1.0" xmlns="http://www.w3.org/2000/svg"
 width="737.000000pt" height="737.000000pt" viewBox="0 0 737.000000 737.000000"
 preserveAspectRatio="xMidYMid meet">

<g transform="translate(0.000000,737.000000) scale(0.100000,-0.100000)"
fill="#000000" stroke="none">
<path d="M1815 7350 c-225 -7 -267 -10 -410 -31 -364 -53 -666 -200 -910 -444
-241 -242 -387 -537 -444 -900 -31 -196 -34 -330 -38 -2070 -6 -2342 -1 -2460
109 -2805 81 -252 252 -510 453 -680 259 -219 528 -331 920 -382 149 -19 4235
-19 4380 0 428 58 712 185 973 436 246 237 393 513 456 859 41 226 41 210 41
2352 0 2208 1 2157 -50 2400 -105 495 -396 870 -840 1085 -206 100 -375 143
-675 171 -135 13 -3597 21 -3965 9z m3324 -896 c84 -22 149 -62 227 -139 108
-107 175 -253 221 -480 26 -128 25 -549 0 -715 -14 -90 -52 -294 -70 -371 -1
-6 57 -30 128 -54 491 -161 862 -386 1049 -636 125 -166 163 -358 103 -527
-115 -327 -520 -627 -1122 -833 -161 -56 -150 -37 -117 -194 41 -197 54 -309
59 -535 8 -328 -24 -518 -122 -715 -115 -234 -279 -339 -530 -338 -323 1 -712
196 -1134 568 l-120 106 -101 -90 c-412 -369 -838 -580 -1174 -581 -213 0
-361 70 -470 224 -127 177 -180 391 -180 726 0 225 15 363 65 603 16 78 29
147 29 153 0 6 -46 26 -102 44 -545 171 -987 470 -1138 771 -92 180 -85 375
17 548 169 283 547 530 1076 702 110 36 157 56 153 64 -2 7 -16 69 -30 137
-123 597 -85 1076 105 1347 194 276 549 305 1005 81 199 -98 452 -275 657
-461 l77 -71 34 29 c19 15 74 63 122 107 190 168 444 341 629 426 136 62 281
105 420 124 47 6 173 -5 234 -20z"/>
<path d="M2340 6197 c-71 -17 -88 -26 -137 -80 -50 -54 -73 -99 -102 -192 -71
-230 -68 -576 10 -959 16 -83 32 -152 34 -154 2 -3 77 10 167 27 189 37 458
77 582 87 l86 7 96 129 c112 151 256 329 361 444 40 45 73 86 73 91 0 15 -176
166 -306 264 -333 250 -668 380 -864 336z"/>
<path d="M4845 6199 c-261 -63 -611 -275 -882 -535 l-73 -69 76 -85 c102 -115
284 -342 378 -471 l76 -106 78 -7 c130 -11 479 -65 622 -95 74 -16 136 -28
137 -27 2 2 14 57 27 123 126 618 61 1120 -162 1250 -41 24 -58 28 -142 30
-52 1 -113 -2 -135 -8z"/>
<path d="M3574 5262 c-66 -76 -147 -174 -180 -218 l-61 -79 367 0 368 0 -21
30 c-83 117 -330 405 -347 405 -4 0 -61 -62 -126 -138z"/>
<path d="M3233 4691 c-57 -4 -104 -9 -107 -12 -14 -14 -185 -286 -253 -399
-85 -144 -217 -386 -279 -511 l-37 -76 95 -184 c113 -219 233 -425 373 -644
l103 -160 89 -7 c121 -9 741 -11 914 -2 l142 7 72 111 c148 229 305 501 427
742 l71 140 -63 125 c-116 229 -276 505 -429 741 -55 85 -82 118 -101 123 -37
9 -898 14 -1017 6z m641 -463 c88 -29 165 -79 232 -151 198 -211 198 -542 0
-754 -111 -119 -243 -177 -406 -177 -245 0 -449 148 -531 384 -17 51 -22 87
-22 170 0 83 5 119 22 170 103 296 412 454 705 358z"/>
<path d="M2645 4630 c-170 -26 -399 -70 -414 -79 -9 -6 -2 -39 33 -141 65
-190 149 -401 157 -392 4 4 46 78 93 165 48 87 125 221 172 298 90 148 101
170 88 168 -5 0 -63 -9 -129 -19z"/>
<path d="M4623 4637 c2 -7 52 -91 109 -187 57 -96 137 -235 177 -307 40 -73
74 -133 76 -133 11 0 195 497 195 525 0 16 -86 37 -315 75 -251 41 -247 41
-242 27z"/>
<path d="M1760 4421 c-392 -137 -653 -292 -814 -481 -74 -87 -101 -151 -101
-240 0 -112 39 -186 164 -311 149 -148 354 -275 621 -384 111 -46 320 -118
325 -113 1 2 24 66 50 143 50 150 172 463 228 585 l34 75 -37 80 c-61 132
-150 360 -211 535 -45 130 -61 165 -75 167 -11 1 -93 -24 -184 -56z"/>
<path d="M5404 4368 c-49 -150 -131 -362 -206 -531 l-60 -137 72 -163 c82
-183 162 -385 209 -529 19 -58 38 -98 46 -98 7 0 66 18 131 41 563 194 944
483 962 731 18 250 -360 545 -957 749 -79 27 -147 49 -152 49 -4 0 -24 -51
-45 -112z"/>
<path d="M4936 3297 c-65 -121 -196 -349 -268 -464 -44 -72 -53 -93 -40 -93
53 0 512 78 559 95 15 5 -34 152 -124 374 -82 204 -70 195 -127 88z"/>
<path d="M2352 3218 c-68 -174 -138 -385 -131 -392 12 -12 557 -100 566 -92 2
2 -52 95 -120 207 -67 112 -149 255 -182 317 -33 61 -63 112 -67 112 -4 0 -33
-69 -66 -152z"/>
<path d="M5180 2564 c-89 -22 -394 -71 -550 -89 -80 -9 -159 -18 -177 -21 -28
-4 -44 -22 -120 -127 -96 -134 -288 -376 -378 -477 l-58 -64 77 -72 c219 -207
506 -398 719 -478 162 -61 337 -73 423 -28 121 62 204 244 235 512 22 193 -3
524 -59 775 -21 91 -22 92 -112 69z"/>
<path d="M2125 2498 c-53 -231 -75 -416 -75 -628 0 -391 95 -623 276 -676 201
-58 564 77 905 338 124 94 289 238 289 252 0 6 -22 33 -49 61 -74 76 -259 301
-373 454 -55 75 -104 139 -107 143 -3 3 -78 14 -166 23 -181 18 -444 57 -584
86 -51 10 -95 19 -96 19 -2 0 -11 -33 -20 -72z"/>
<path d="M3340 2419 c0 -18 355 -439 370 -439 14 0 222 249 342 410 l27 35
-370 0 c-203 0 -369 -3 -369 -6z"/>
</g>
</svg>
