<svg version="1.0" xmlns="http://www.w3.org/2000/svg"
 width="970.000000pt" height="628.000000pt" viewBox="0 0 970.000000 628.000000"
 preserveAspectRatio="xMidYMid meet">

<g transform="translate(0.000000,628.000000) scale(0.100000,-0.100000)"
fill="#FFFFFF" stroke="none">
<path d="M2855 4178 l0 -2103 -23 -79 c-22 -75 -47 -136 -62 -146 -3 -3 -17
-21 -31 -40 -26 -39 -94 -103 -149 -140 -19 -13 -37 -27 -40 -30 -17 -18 -80
-57 -110 -67 -120 -40 -413 -65 -522 -44 -106 21 -210 67 -270 119 -132 114
-167 152 -195 217 -12 28 -40 91 -62 140 -22 50 -49 114 -60 143 -25 62 -115
198 -141 212 -10 5 -24 16 -32 23 -28 29 -210 108 -280 123 -123 26 -295 5
-443 -54 -27 -11 -72 -29 -98 -39 -35 -14 -69 -42 -127 -105 -70 -74 -95 -112
-157 -230 -7 -15 -20 -70 -28 -124 -27 -177 -15 -412 26 -533 11 -30 19 -64
19 -76 0 -11 4 -25 9 -30 5 -6 18 -32 29 -60 24 -60 85 -186 115 -236 21 -35
32 -52 84 -129 51 -76 133 -172 169 -199 22 -15 64 -56 94 -92 30 -35 59 -66
63 -68 5 -2 41 -31 80 -65 69 -60 115 -93 255 -184 170 -111 434 -209 687
-256 134 -25 155 -26 483 -26 323 0 345 1 382 20 22 11 58 20 81 20 52 0 155
16 229 35 30 8 112 28 181 44 69 17 168 46 220 64 52 19 110 40 129 47 19 7
55 22 80 34 43 20 45 23 48 66 6 120 46 253 82 275 6 4 21 23 34 43 19 30 49
49 157 104 141 70 193 86 312 97 l72 6 3 35 c3 33 -14 108 -72 330 -39 146
-49 248 -43 405 7 149 27 279 56 356 18 45 82 149 146 234 37 49 154 285 223
447 27 64 69 145 92 180 50 72 110 206 147 323 13 44 36 109 49 143 47 119 42
265 -13 376 -84 173 -103 203 -168 269 -20 21 -46 54 -58 75 -44 75 -102 143
-127 148 -46 10 -59 19 -143 95 -46 42 -109 114 -141 160 -31 46 -73 106 -92
133 -19 26 -44 80 -55 118 -23 73 -22 140 0 278 5 30 10 98 10 150 1 52 6 133
11 180 6 47 11 152 11 233 0 82 4 173 9 202 17 103 93 226 167 268 24 14 136
-48 231 -127 48 -40 135 -123 193 -184 l106 -112 261 0 260 0 119 121 c139
142 295 277 332 286 14 3 32 10 39 16 22 17 116 -41 148 -92 63 -102 73 -147
79 -361 3 -85 9 -209 15 -275 5 -66 10 -169 10 -228 0 -70 6 -131 17 -172 16
-60 16 -69 0 -141 -16 -75 -86 -214 -123 -245 -8 -7 -32 -37 -52 -67 -46 -71
-135 -166 -189 -204 l-43 -29 0 -228 0 -228 40 -59 c22 -33 49 -88 61 -124 12
-36 39 -104 60 -152 33 -72 42 -106 54 -205 8 -65 21 -152 29 -193 34 -170 56
-312 66 -425 6 -66 15 -136 20 -155 4 -19 12 -78 15 -130 7 -83 11 -100 35
-130 51 -65 155 -281 175 -365 30 -124 27 -362 -7 -516 -30 -136 -43 -162
-137 -289 l-71 -95 0 -443 0 -442 538 2 537 3 3 1122 2 1123 828 0 c631 0 831
3 840 12 18 18 17 1477 0 1483 -20 6 -766 15 -1241 15 l-427 0 2 481 3 482
1355 1 1355 1 3 778 2 777 -3422 0 -3423 0 0 -2102z"/>
</g>
</svg>
